<svg xmlns="http://www.w3.org/2000/svg" viewBox="0 0 1819.73 1635.86" fill="#2c3d44" xmlns:v="https://vecta.io/nano"><path d="M1819.67 1605.45c-3.31-46.09-6.71-348-6.71-396.79.61-34.19-3.39-116.44-4-123.24-2.8-30-3.77-58.09-7.11-88.08-3.3-29.7 3.75-52-.42-81.59-5.85-41.49-22.43-98.91-28.8-122.11s-11-30.19-28.07-51c-11.49-14-24.18-28.2-35.85-42-9.79-11.6-12.34-45.66-12.39-59.9a307.28 307.28 0 0 1 2.71-40.81c19.74 8.13 35.72 16.64 40.58 16.64 6.21 0-23.9-34.44-20.47-66.81 1.92-18.12 3.91-48.63 5.56-82.62 6-24.13 11.83-48.29 14.15-73.22 2-21.11 15.89-45.1-10.7-103.69a98.01 98.01 0 0 0-2.2-4.49c-13-42.73-24.13-70.32-24.13-70.32s26 55.58 30.09 53.74 3.45-52-19.09-98.29c-14.81-30.37-42-47.63-58.92-55.9l54.31 22.58s12.37-6.75-33.13-50.47-118.34-19.24-118.34-19.24 5.47-2.86-33.9-38.07-101.58-30.28-98.1-28.46c3 1.58 34.52 21.11 42.55 26.1-6.73-3.62-33.5-13.9-107.7-2.87-88.56 13.16-167.09 95.59-164.45 94.76s86.26-29.82 87.08-27.18-36.91 19-62.47 29.93-127.83 81.14-125.43 93.59 40.8-12.16 41.23-7.08-48.66 29.67-86.8 87.1-3.64 114.88 7.14 117.89 5-30.51 14.29-34c1.35-.5 3.2.17 5.5 1.7a97.11 97.11 0 0 0 14.39 37.39 17.46 17.46 0 0 1 3.14 12 66.07 66.07 0 0 0 2.33 26.47c4.28 13.7 7.78 27.68 12.84 41.07 15.58 41.16 42.5 72.51 82 92.6 7.15 3.63 14 8 20.89 12a7 7 0 0 1 3.8 6.17q2.3 31 5.09 61.87a51.81 51.81 0 0 0 2.89 13.39c3.61 9.58 10.9 13.58 21.11 12.26 3.08-.4 6.15-1 9.51-1.5a98.46 98.46 0 0 0 5 9.22c4 5.92 8.1 11.85 12.62 17.38 4.67 5.72 10.68 10.67 18.36 9.34 8.13-1.4 12.43 7.1 19.94 6.09.85-.11 1.73 0 2.57-.21 6-1.18 9.32 2.27 11.33 7.05a99.34 99.34 0 0 1 5.56 16.26c4.28 18.65 15.79 27.72 35.14 27.28 6.38-.14 12.76 0 20.34 0l-10.6 12.17c-9.59 10.36-19.06 20.88-24.88 33.9-6.56 14.65-43.45 76.13-58.87 145.24s-37.62 116.16-46.38 136.61-27.06 79.71-30.12 91.71c-1.21.24-53.59-1.17-66.09-5.87-9.13-3.43-18.22-7-27.16-10.87-18.79-8.17-38-14.72-58.53-16.81-28-2.85-54.57.49-77.82 18a165 165 0 0 0-13.7 11.79c-2.41 2.27-4.65 3.11-7.7 1.61-1.8-.88-3.77-1.4-5.57-2.28l-117.32-58c-30.12-15.56-59.4-32.73-89.06-49.18l-34.71-19.19c-9.65-5.21-18.86-2.39-23.91 7.08l-5.6 10.7c-2.42 4.35-1.89 8.36 1.48 11.83a38.08 38.08 0 0 0 7.19 6l31.77 19.12c37.08 23 75.82 43.4 111.25 69.1 8.22 6 8.36 5.7 6.33 16.18a113.2 113.2 0 0 0-2.12 12.74c-1.11 14.49 2.42 22 15.77 27.4 10.51 4.27 21.92 6.53 33.09 8.88 4.45.93 7.18 1.66 8.17 6.77a48.5 48.5 0 0 0 14.68 26.75c2.35 2.19 3.43 5.77 5 8.76 3.66 7.09 6.68 14.6 11 21.24 7.53 11.53 18.79 19.38 30 26.91 5.72 3.85 12.81 6.16 19.73 4.25 5-1.38 8.39.36 11.85 2.88 16.73 12.2 35.44 16.1 55.59 12.86 14.26-2.3 28.06-.16 41.91 2.65l35.44 7.1a40.55 40.55 0 0 0 24.47-2.45c4.13-1.8 8.91-3.71 13.19-3.31 13.63 1.27 27.16 3.59 41.59 5.62.24 26.62 12.85 70.55 12.24 115.26-.67 49.33-10.91 113.61-10.91 119.75s1.51 15.58 20.65 15.58h571c16.04 0 23.65-15.21 22.8-30.41zM0 1431.01h39.11v148.4H0zm171.3 36.77h-38.05v111.59H94.48v-111.59H56.43v-36.77H171.3zm15.38 13.8c10.76-1 15.88-8.49 15.88-17.55h-17.39v-36.63h36.34v33.52c0 23.07-14.14 38.22-34.83 40.19zm49.06 49.87h39.82c0 10.6 7.72 15.76 16.52 15.76 8.08 0 15.8-4.55 15.8-12.66 0-9.31-10.9-12-24.24-15.43-20.25-5.34-46.1-11.91-46.1-45.69 0-29.23 20.27-46 53.31-46 33.58 0 52.85 18.26 52.85 48.46h-38.71c0-9.39-6.6-13.79-14.6-13.79-6.88 0-13.48 3.16-13.48 10.08 0 8.43 10.55 11.22 23.75 14.73 20.61 5.64 47.58 12.93 47.58 46.82 0 32.42-23.51 49.24-56.05 49.24-34.29.04-56.45-19.17-56.45-51.52zm301.1-100.44v148.4h-31.92l-55.66-80.54v80.54h-37.4v-148.4h33.78l53.8 77.86v-77.86zm96.97 152.12c-45 0-77.18-32.6-77.18-78s32.14-78 77.18-78 76.94 32.47 76.94 78-32 77.95-76.94 77.95zm0-38c21.32 0 36.75-16.68 36.75-39.9s-15.43-39.92-36.75-39.92-37 16.81-37 39.91 15.66 39.91 37 39.91zm198.11-77.35h-38.06v111.59H755.1v-111.59h-38.06v-36.77h114.88zm125.09 115.35c-45 0-77.17-32.6-77.17-78s32.13-78 77.17-78 76.94 32.47 76.94 78-32 77.95-76.94 77.95zm0-38c21.32 0 36.76-16.68 36.76-39.9s-15.44-39.92-36.76-39.92-37 16.81-37 39.91 15.67 39.91 37 39.91zm175.43 34.24l-40.18-65.56v65.56h-38.59v-148.36h38.59v62.55l37-62.55h44.76l-44.86 71.88 49 76.52z"/></svg>